<svg width="110" height="110" viewBox="0 0 110 110" fill="none" xmlns="http://www.w3.org/2000/svg">
<path d="M31.1318 43.0253C34.2964 43.724 37.7371 44.0072 40.8195 44.9979C41.4586 45.2033 42.2106 45.5876 42.6606 46.0938C44.2403 47.8709 31.0069 53.0133 30.3428 53.6774" stroke="white" stroke-width="3" stroke-linecap="round"/>
<path d="M76.1072 37.1075C73.4412 39.3292 68.4305 41.2359 67.1209 44.6034C67.0161 44.8729 75.9268 45.5596 77.2908 45.787" stroke="white" stroke-width="3" stroke-linecap="round"/>
<path d="M40.9949 79.7158C47.499 75.984 53.9885 74.8058 61.4662 74.609C65.6347 74.4993 69.6473 75.3761 73.7402 75.3761" stroke="white" stroke-width="3" stroke-linecap="round"/>
<path d="M102.5 55C102.5 81.2335 81.2335 102.5 55 102.5C28.7665 102.5 7.5 81.2335 7.5 55C7.5 28.7665 28.7665 7.5 55 7.5C81.2335 7.5 102.5 28.7665 102.5 55Z" stroke="white" stroke-width="15"/>
</svg>
