<svg
    xmlns="http://www.w3.org/2000/svg"
    xmlns:xlink="http://www.w3.org/1999/xlink"
    width="1177"
    height="325"
    viewBox="0 0 1177 325"
    
  >
    <g id="Pattern_Shape" data-name="Pattern Shape" transform="translate(-6010 653)" clip-path="url(#clip-path)">
      <g id="Group_28" data-name="Group 28" transform="translate(6010 -626.904)">
        <g id="Group_27" data-name="Group 27" opacity="0.3" color="#ffffff">
          <path
            id="Path_156"
            data-name="Path 156"
            d="M914.649,60.425c14.754,9.409,17.3,29.156,23.433,45.55,5.709,15.255,11.488,30.109,10.974,46.394-.606,19.173,1.188,42.818-14.155,54.333-15.454,11.6-37.207-2.119-56.5-1.3-17.461.737-36.36,15.644-50.816,5.832-14.611-9.916-7.571-33.309-13.942-49.784-5.876-15.193-23.3-26.212-21.72-42.432,1.6-16.463,17.012-27.567,29.569-38.334,12.257-10.51,25.719-19.17,41.49-22.6C880.254,54.325,899.751,50.924,914.649,60.425Z"
            fill="none"
            stroke="currentColor"
            stroke-width="1"
            fill-rule="evenodd"
          />
          <path
            id="Path_157"
            data-name="Path 157"
            d="M937.664,12.427c23.835,15.2,27.992,47.013,37.935,73.44,9.252,24.59,18.616,48.533,17.827,74.768-.928,30.885,2.027,68.982-22.706,87.494-24.913,18.645-60.054-3.508-91.193-2.246-28.179,1.142-58.642,25.109-82,9.266-23.605-16.013-12.3-53.68-22.627-80.237-9.521-24.491-37.665-42.287-35.162-68.412,2.541-26.517,27.387-44.367,47.625-61.681,19.755-16.9,41.46-30.817,66.9-36.3C882.137,2.512,913.595-2.917,937.664,12.427Z"
            fill="none"
            stroke="currentColor"
            stroke-width="1"
            fill-rule="evenodd"
          />
          <path
            id="Path_158"
            data-name="Path 158"
            d="M959.96-34.071c32.632,20.8,38.351,64.313,51.98,100.459,12.69,33.634,25.53,66.383,24.47,102.256-1.24,42.232,2.84,94.329-30.99,119.618-34.076,25.473-82.187-4.853-124.8-3.156-38.562,1.535-80.228,34.279-112.207,12.592-32.319-21.918-16.887-73.414-31.041-109.738-13.053-33.5-51.585-57.859-48.184-93.58,3.452-36.258,37.437-60.642,65.117-84.3,27.018-23.091,56.708-42.1,91.523-49.576C883.961-47.681,927.007-55.075,959.96-34.071Z"
            fill="none"
            stroke="currentColor"
            stroke-width="1"
            fill-rule="evenodd"
          />
          <path
            id="Path_159"
            data-name="Path 159"
            d="M980.1-76.068C1020.68-50.205,1027.81,3.87,1044.77,48.794c15.78,41.8,31.76,82.5,30.47,127.083-1.53,52.481,3.57,117.223-38.48,148.635-42.35,31.639-102.177-6.069-155.153-3.98-47.94,1.89-99.725,42.562-139.492,15.6-40.189-27.251-21.028-91.239-38.641-136.385-16.242-41.632-64.156-71.924-59.945-116.312C647.8,38.376,690.043,8.09,724.445-21.3c33.578-28.683,70.481-52.292,113.76-61.565C885.609-93.017,939.121-102.185,980.1-76.068Z"
            fill="none"
            stroke="currentColor"
            stroke-width="1"
            fill-rule="evenodd"
          />
          <path
            id="Path_160"
            data-name="Path 160"
            d="M998.8-115.066C1046.75-84.5,1055.19-20.619,1075.25,32.457c18.67,49.387,37.55,97.476,36.04,150.137-1.79,62,4.25,138.481-45.43,175.578-50.03,37.365-120.738-7.2-183.337-4.745-56.648,2.22-117.829,50.253-164.827,18.388-47.5-32.2-24.873-107.79-45.7-161.128-19.2-49.186-75.831-84.984-70.867-137.421,5.039-53.225,54.944-88.992,95.587-123.7,39.67-33.875,83.27-61.756,134.409-72.7C887.139-135.114,950.37-145.93,998.8-115.066Z"
            fill="none"
            stroke="currentColor"
            stroke-width="1"
            fill-rule="evenodd"
          />
          <path
            id="Path_161"
            data-name="Path 161"
            d="M1018.22-155.565c55.62,35.447,65.41,109.516,88.69,171.056,21.65,57.263,43.56,113.022,41.81,174.078-2.06,71.88,4.97,160.557-52.63,203.557-58.02,43.311-140.023-8.369-212.615-5.538-65.691,2.562-136.63,58.24-191.137,21.285-55.087-37.348-28.866-124.978-53.027-186.822C617.031,165.019,551.357,123.5,557.1,62.708,562.935,1,620.8-40.458,667.924-80.687c46-39.267,96.551-71.584,155.852-84.26C888.728-178.831,962.051-191.359,1018.22-155.565Z"
            fill="none"
            stroke="currentColor"
            stroke-width="1"
            fill-rule="evenodd"
          />
          <path
            id="Path_162"
            data-name="Path 162"
            d="M1041.95-205.062c64.99,41.413,76.45,127.931,103.64,199.818,25.31,66.89,50.92,132.022,48.89,203.338-2.39,83.959,5.83,187.539-61.46,237.754-67.77,50.579-163.575-9.8-248.382-6.508-76.744,2.981-159.608,68-223.294,24.826C596.982,410.533,627.6,308.181,599.361,235.94c-26.04-66.62-102.772-115.125-96.071-186.135,6.8-72.077,74.4-120.491,129.442-167.472,53.729-45.857,112.783-83.595,182.06-98.39C890.67-232.262,976.328-246.881,1041.95-205.062Z"
            fill="none"
            stroke="currentColor"
            stroke-width="1"
            fill-rule="evenodd"
          />
          <path
            id="Path_163"
            data-name="Path 163"
            d="M1067.84-259.06c75.2,47.923,88.48,148.021,119.96,231.195,29.29,77.392,58.94,152.75,56.6,235.259-2.76,97.136,6.77,216.974-71.08,275.06-78.41,58.507-189.282-11.364-287.413-7.566-88.8,3.437-184.675,78.65-258.374,28.689-74.481-50.491-39.07-168.9-71.754-252.486C525.638,174.012,436.842,117.883,444.586,35.728c7.86-83.388,86.067-139.391,149.754-193.737,62.164-53.046,130.492-96.7,210.651-113.8C892.788-290.551,991.9-307.452,1067.84-259.06Z"
            fill="none"
            stroke="currentColor"
            stroke-width="1"
            fill-rule="evenodd"
          />
          <path
            id="Path_164"
            data-name="Path 164"
            d="M1093.01-311.557C1178.15-257.3,1193.19-144,1228.83-49.858c33.17,87.6,66.74,172.9,64.1,266.294-3.11,109.947,7.68,245.591-80.43,311.329-88.76,66.215-214.274-12.883-325.359-8.594-100.524,3.88-209.047,89-292.48,32.445-84.319-57.159-44.246-191.183-81.254-285.794-34.128-87.248-134.652-150.79-125.895-243.779,8.889-94.385,97.414-157.766,169.5-219.272,70.365-60.036,147.708-109.438,238.447-128.793C894.848-347.22,1007.04-366.34,1093.01-311.557Z"
            fill="none"
            stroke="currentColor"
            stroke-width="1"
            fill-rule="evenodd"
          />
          <path
            id="Path_165"
            data-name="Path 165"
            d="M1116.03-359.555c94.22,60.038,110.87,185.411,150.32,289.59,36.71,96.938,73.87,191.328,70.95,294.667-3.43,121.66,8.52,271.755-88.98,344.491-98.22,73.262-237.12-14.272-360.051-9.536-111.242,4.286-231.329,98.469-323.662,35.879-93.314-63.254-48.978-211.553-89.94-316.246C436.893,182.744,325.646,112.426,335.33,9.531c9.829-104.44,107.788-174.566,187.559-242.619,77.863-66.427,163.448-121.086,263.861-142.5C896.731-399.033,1020.89-420.181,1116.03-359.555Z"
            fill="none"
            stroke="currentColor"
            stroke-width="1"
            fill-rule="evenodd"
          />
          <path
            id="Path_166"
            data-name="Path 166"
            d="M1140.48-410.552c103.87,66.185,122.23,204.384,165.73,319.222,40.48,106.856,81.44,210.9,78.23,324.816-3.77,134.1,9.42,299.554-98.07,379.723-108.26,80.75-261.39-15.747-396.9-10.535-122.629,4.718-255,108.527-356.793,39.528-102.871-69.731-54.006-233.2-99.168-348.6C391.859,187.175,269.219,109.656,279.887-3.764,290.716-118.886,398.7-196.179,486.63-271.189,572.46-344.4,666.8-404.65,777.494-428.242,898.732-454.083,1035.6-477.387,1140.48-410.552Z"
            fill="none"
            stroke="currentColor"
            stroke-width="1"
            fill-rule="evenodd"
          />
          <path
            id="Path_167"
            data-name="Path 167"
            d="M1167.09-466.05c114.37,72.876,134.6,225.033,182.5,351.471,44.57,117.65,89.68,232.209,86.16,357.623-4.15,147.647,10.38,329.807-107.96,418.066-119.2,88.9-287.81-17.354-437.018-11.622C755.749,654.674,610,768.959,497.923,692.986c-113.27-76.78-59.477-256.751-109.21-383.814C342.851,192,207.812,106.643,219.552-18.231c11.916-126.748,130.806-211.84,227.62-294.42,94.5-80.605,198.373-146.928,320.249-172.9C900.909-513.991,1051.61-539.64,1167.09-466.05Z"
            fill="none"
            stroke="currentColor"
            stroke-width="1"
            fill-rule="evenodd"
          />
        </g>
      </g>
    </g>
  </svg>