<svg width="582" height="336" viewBox="0 0 582 336" fill="none" xmlns="http://www.w3.org/2000/svg">
<path d="M200.5 21.4C176.1 27.4 157.2 51.2 143.1 93.5C139.3 104.8 137.6 108.6 136.1 109.2C135 109.6 128 109.8 120.6 109.8C113.1 109.7 106.8 109.8 106.5 110.2C106.2 110.5 105.5 112.1 105 113.9L104.1 117H119.6C134.1 117 135 117.1 135 118.9C135 122.2 111.3 239.9 108.1 252.6C100.6 282.3 93.0998 293.3 79.4998 294.7C76.8998 295 74.7998 294.6 73.4998 293.7C71.6998 292.3 71.5998 291.9 72.8998 288.8C73.6998 287 74.4998 282.7 74.7998 279.3C75.0998 273.4 74.9998 272.8 72.1998 270.1C66.3998 264.3 55.7998 265 49.8998 271.7C46.9998 275.1 46.7998 275.7 47.1998 282C47.4998 287.4 48.0998 289.4 50.2998 292.3C58.8998 303.6 77.3998 305.7 94.7998 297.5C108.8 290.9 120.4 277 131.5 253.6C143.4 228.6 150.4 204.8 160 156.5C163.8 137.2 167.2 120.5 167.5 119.2C168 117 168.3 117 182 117H196L197 114.4C198.9 109.5 198.9 109.5 184 109.7C172.7 109.8 170 109.6 170 108.5C170 105.1 182.2 55.5 184.1 50.8C190.2 36.2 198.4 28.9 209.5 28.2C215.4 27.8 220 29 220 30.9C220 31.4 218.4 34.1 216.5 37C208.6 48.8 214.5 61 228 61C238.6 61 243.5 55.7 243.5 44.5C243.5 38.4 243.1 36.7 240.8 33.3C233.9 22.9 216 17.6 200.5 21.4Z" fill="white"/>
<path d="M243.5 99.7C237 109.8 229 125.7 226.1 134.5C218.4 158 218.6 183.4 226.7 208C230.3 218.9 239.1 236.4 245.1 244.7L250.3 252H259.2C264 252 268 251.8 268 251.5C268 251.2 265.3 245.5 261.9 238.9C254.7 224.5 249.8 210 247.6 197.1C245.5 184.5 245.5 157.5 247.6 144.9C249.8 131.8 256.1 113.4 262.6 101.2L268 91H258.6H249.2L243.5 99.7Z" fill="white"/>
<path d="M491 91.5C491 91.8 493.6 97.3 496.9 103.8C503.7 117.4 508 129 510.6 141C513 151.8 513.3 189.4 511.1 200.5C508.8 212.6 503.2 228.4 497 240.4L491 252H500.3H509.6L515 243.8C525.9 227.4 534 208.4 537.1 192C538.7 183.3 538.7 163.2 537.1 154C533.9 136 523.9 111.9 513.5 97.7L508.6 91H499.8C495 91 491 91.2 491 91.5Z" fill="white"/>
<g clip-path="url(#clip0_903_83)">
<path d="M386.719 251.914C382.423 257.331 373.712 254.363 373.608 247.446L372.094 146.271H440.036C452.342 146.271 459.205 160.503 451.553 170.153L386.719 251.914Z" fill="url(#paint0_linear_903_83)"/>
<path d="M386.719 251.914C382.423 257.331 373.712 254.363 373.608 247.446L372.094 146.271H440.036C452.342 146.271 459.205 160.503 451.553 170.153L386.719 251.914Z" fill="url(#paint1_linear_903_83)" fill-opacity="0.2"/>
<path d="M359.088 89.1158C363.384 83.6977 372.095 86.6664 372.199 93.5838L372.862 194.758H305.771C293.465 194.758 286.601 180.526 294.254 170.876L359.088 89.1158Z" fill="#3ECF8E"/>
</g>
<defs>
<linearGradient id="paint0_linear_903_83" x1="372.094" y1="168.704" x2="432.502" y2="194.006" gradientUnits="userSpaceOnUse">
<stop stop-color="#249361"/>
<stop offset="1" stop-color="#3ECF8E"/>
</linearGradient>
<linearGradient id="paint1_linear_903_83" x1="345.323" y1="132.002" x2="372.917" y2="183.879" gradientUnits="userSpaceOnUse">
<stop/>
<stop offset="1" stop-opacity="0"/>
</linearGradient>
<clipPath id="clip0_903_83">
<rect width="163.77" height="170" fill="white" transform="translate(291 86)"/>
</clipPath>
</defs>
</svg>
